<svg id="Working" xmlns="http://www.w3.org/2000/svg" xmlns:xlink="http://www.w3.org/1999/xlink" viewBox="0 0 673.3 269.87"><defs><linearGradient id="linear-gradient" x1="425.29" y1="884.92" x2="425.29" y2="855.5" gradientTransform="matrix(1 -.08 -.08 -1 479.8 999.41)" gradientUnits="userSpaceOnUse"><stop offset="0" stop-color="#0e234b"/><stop offset="1" stop-color="#144c8e"/></linearGradient><linearGradient id="linear-gradient-2" x1="375.04" y1="886.66" x2="356.21" y2="836.23" gradientTransform="matrix(1 -.08 -.08 -1 407.34 994.16)" gradientUnits="userSpaceOnUse"><stop offset="0" stop-color="#11437f"/><stop offset="1" stop-color="#0e234b"/></linearGradient><linearGradient id="linear-gradient-3" x1="350.51" y1="871.6" x2="380.24" y2="905.36" gradientTransform="matrix(1 -.08 -.08 -1 344.56 974.07)" gradientUnits="userSpaceOnUse"><stop offset="0" stop-color="#1a60a8"/><stop offset="1" stop-color="#0e234b"/></linearGradient><linearGradient id="linear-gradient-4" x1="247.27" y1="870.48" x2="251.3" y2="834.86" gradientTransform="matrix(1 -.08 -.08 -1 307.07 1000.49)" gradientUnits="userSpaceOnUse"><stop offset="0" stop-color="#0e234d"/><stop offset="1" stop-color="#1a60a8"/></linearGradient><linearGradient id="linear-gradient-5" x1="273.8" y1="811.55" x2="289.22" y2="783.5" gradientTransform="matrix(1 -.08 -.08 -1 255.85 1022.71)" gradientUnits="userSpaceOnUse"><stop offset="0" stop-color="#0f3f78"/><stop offset="1" stop-color="#0e234b"/></linearGradient><linearGradient id="linear-gradient-6" x1="228.66" y1="833.92" x2="252.85" y2="773.26" gradientTransform="matrix(1 -.08 -.08 -1 194.68 1031.13)" gradientUnits="userSpaceOnUse"><stop offset="0" stop-color="#144a8c"/><stop offset="1" stop-color="#0e234b"/></linearGradient><linearGradient id="linear-gradient-7" x1="169.49" y1="865.27" x2="200.02" y2="819.36" gradientTransform="matrix(1 -.08 -.08 -1 194.68 1031.13)" xlink:href="#linear-gradient-4"/><mask id="mask" x="383.42" y="27.12" width="160.89" height="182.89" maskUnits="userSpaceOnUse"><g transform="translate(-289.44 -36.27)"><g id="Mask_Mask_1" data-name="Mask Mask 1"><path class="cls-1" d="M798.23 129a53.43 53.43 0 0 1 6.38-4.61l-14.72-61-52.78 7-10.84 6.75-27.2 2.21-14.9 8.14-11.31 134.41 65.14 2.89 5.44 10.14 6.66-4.46 2.78 11.25 61 4.56 19.86-11.66-5.87-21.84a9.5 9.5 0 0 0-1.31.2 51 51 0 0 1-7.89.37 42.63 42.63 0 0 1-12.36-2.2l-3.39-1.23a40.63 40.63 0 0 1-14.15-10.06 42.92 42.92 0 0 1-8.71-15.38A44.83 44.83 0 0 1 779 161a56.62 56.62 0 0 1 10.1-22.34 47 47 0 0 1 9.13-9.66Z" id="Mask_Mask_M_Mask_0_Layer0_0_FILL" data-name="Mask Mask M Mask 0 Layer0 0 FILL"/></g></g></mask><mask id="mask-6" x="176.39" y="33.42" width="203.55" height="207.22" maskUnits="userSpaceOnUse"><g transform="translate(-289.44 -36.27)"><g id="Mask_Mask_2" data-name="Mask Mask 2"><path class="cls-1" d="M594.25 165.78a46 46 0 0 1-1.44-6.73h.09l37.46-36.83-68.18-52.53-96.35 43.12 7.07 52.06 11.15-3.93 20.35 116 52.9-12 23.62-15.7-.92-11.63 66.16 26.46 23.25-15.93-4-49.38a76.66 76.66 0 0 1-9.69 2.21 60.37 60.37 0 0 1-11.39.93 56.5 56.5 0 0 1-25.21-6.05A48.62 48.62 0 0 1 600 178.64a44.21 44.21 0 0 1-5.75-12.86Z" id="Mask_Mask_K_Mask_0_Layer0_0_FILL" data-name="Mask Mask K Mask 0 Layer0 0 FILL"/></g></g></mask><style>.cls-1{fill:#fff}.cls-3{fill:#fcc93d}.cls-4{fill:#c89e3f}.cls-6{fill:#1d305b}.cls-8{fill:#1b3b6b}.cls-9{fill:#375fa2}.cls-10{mask:url(#mask)}.cls-11{fill:#ffc93c}.cls-15{fill:#7d7e6a}.cls-16{mask:url(#mask-6)}</style></defs><path d="M945.56 218.88h-.09a8.55 8.55 0 1 0 7.19 14.12 8.31 8.31 0 0 0 2-6.3 8.16 8.16 0 0 0-3-5.8 8.05 8.05 0 0 0-6.11-2m0 1.33h.08a6.27 6.27 0 0 1 4.94 1.73 7.51 7.51 0 0 1 .84 10.25 6 6 0 0 1-4.61 2.42 6.51 6.51 0 0 1-5-1.73 7.17 7.17 0 0 1-2.45-5 6.83 6.83 0 0 1 1.63-5.19 6.22 6.22 0 0 1 4.6-2.51m4 9.54c-.41-1.38-1-2.11-1.78-2.16v-.09a2.44 2.44 0 0 0 1.67-2.45 2.52 2.52 0 0 0-1.05-2 5.15 5.15 0 0 0-3.06-.46 13.07 13.07 0 0 0-2.63.48l.77 9.45 1.5-.12-.33-4.06 1.06-.09a1.83 1.83 0 0 1 2.17 1.51 7.08 7.08 0 0 0 .9 2.33l1.5-.12a9.33 9.33 0 0 1-.72-2.26m-5-2.52-.25-3.18 1-.27c1.59-.12 2.43.37 2.52 1.49s-.66 1.74-2.25 1.87Z" transform="translate(-289.44 -36.27)" style="fill:#010202" id="Layer7_0_FILL" data-name="Layer7 0 FILL"/><path class="cls-3" d="m917.74 100.76-9.13 58.35L890 96.34l-40.76-4.87.28 11.09 9 1.58L857 215l23.62 1.82 5.77-61.46 8.23 78.46 21.89 4.54L948.85 105Z" transform="translate(-289.44 -36.27)" id="N_BAckground_0_Layer0_0_FILL" data-name="N BAckground 0 Layer0 0 FILL"/><path class="cls-4" d="m890 96.34-40.76-4.87.17 6.47 35.59 4.23 18.7 62.76 5-5.82L890 96.34m-3.65 59.06-5 5.83-5.21 55.27 4.39.36 5.77-61.46m30.4-48.25 27.06 3.67L913 237.7l3.44.7L948.85 105l-31.11-4.23Z" transform="translate(-289.44 -36.27)" id="N_Shadows_0_Layer0_0_FILL" data-name="N Shadows 0 Layer0 0 FILL"/><g id="N_Edge_0_Layer0_0_FILL" data-name="N Edge 0 Layer0 0 FILL"><path d="m849.8 113.65-10 6.68-4.23 112.19 10.82-6.92h.09Z" transform="translate(-289.44 -36.27)" style="fill:#2e306d"/><path class="cls-6" d="m840.45 112.36-10.92 6.76 10.23 1.21 10-6.68-9.36-1.37v.08m69-24.27-7.93 5.18 4.67 15.73Z" transform="translate(-289.44 -36.27)"/><path d="m826.33 85.24 3.2 33.88 10.92-6.76v-.08l-3.22-34.15Z" transform="translate(-289.44 -36.27)" style="fill:url(#linear-gradient)"/><path class="cls-8" d="m924.86 251.94-39.58-9-1.5-15.17-37.34-2.21h-.09l-10.82 6.92 37.47 2.33 1.57 15 39.32 9.08Z" transform="translate(-289.44 -36.27)"/></g><path class="cls-9" d="m962.74 96.57-53.32-8.48-3.28 20.91-6.43-22.24-62.49-8.62 3.13 34.15 9.45 1.37-3.45 112 37.43 2.2 1.5 15.17 39.58 9 37.88-155.46m-54.13 62.54 9.13-58.35 31.11 4.24-32.38 133.4-21.89-4.54-8.23-78.46-5.77 61.46L857 215l1.58-110.9-9-1.58-.28-11.09 40.7 4.91Z" transform="translate(-289.44 -36.27)" id="N_Border_0_Layer0_0_FILL" data-name="N Border 0 Layer0 0 FILL"/><path class="cls-3" d="M862.41 147.48a34.32 34.32 0 0 0-4.34-8.54 28.68 28.68 0 0 0-8.82-8 31.49 31.49 0 0 0-16-4.48 39.69 39.69 0 0 0-13.52 2.08q-2.33.81-4.73 1.89a48.38 48.38 0 0 0-13.93 10.2 51.55 51.55 0 0 0-8.5 12.52q-7 14.79-2.59 28.39A30.7 30.7 0 0 0 816.15 203a34.27 34.27 0 0 0 9.59-.15 42 42 0 0 0 11.61-3.7 41.54 41.54 0 0 0 10.06-6.42A46.52 46.52 0 0 0 857.48 181a43.84 43.84 0 0 0 6.14-16.41 36.35 36.35 0 0 0-1.21-17.11Z" transform="translate(-289.44 -36.27)" id="O_2_Background_0_Layer0_0_FILL" data-name="O 2 Background 0 Layer0 0 FILL"/><path class="cls-4" d="M834.68 173.82a32.58 32.58 0 0 0 9.57-10.29.28.28 0 0 0-.17.1c-.6.7-1.22 1.41-1.88 2.11a19.94 19.94 0 0 1-14 6 21.94 21.94 0 0 1-5-.31 19.57 19.57 0 0 1-9.35-4.57 15.92 15.92 0 0 1-5.78-13q.18-7.74 2.62-10.43t0-.72q-2.52 2-5.44 7.47-2.84 5.66-2.67 9.82a17.32 17.32 0 0 0 6.42 13.06 20.13 20.13 0 0 0 14.35 4.79h.35a20.9 20.9 0 0 0 11-4m18.36-29a31 31 0 0 1 4.34 8.63 35.38 35.38 0 0 1 1.29 17 44.69 44.69 0 0 1-6.22 16.51l-2 3q10.92-11.2 14.16-20.53 7.71-22.32-15.58-41.86-16.77-4.06-29.43-.1a38.37 38.37 0 0 0-10.53 5 38.83 38.83 0 0 0-8.84 8.28c-1.89 2.94-3 4.53-3.17 4.79a48.12 48.12 0 0 1 12.86-9.14 45.59 45.59 0 0 1 10.13-3.4 43.1 43.1 0 0 1 8.21-.75 32.52 32.52 0 0 1 16 4.57 28.84 28.84 0 0 1 8.74 8m-12 8.08a9.76 9.76 0 0 0 3.28-7.73 12.68 12.68 0 0 0-.49-2.72q-.48.66-5 5.75a9.62 9.62 0 0 1 .58 2.79 11.92 11.92 0 0 1-.59 3.7 20.17 20.17 0 0 0 2.26-1.79m-10.44-18h-.27l-1.05.17a12.18 12.18 0 0 0-6.37 3.63 11.56 11.56 0 0 0-1.45 1.89 8.09 8.09 0 0 0-.68 1.48l-.15.37a.28.28 0 0 0 .17-.1 11.18 11.18 0 0 1 4.76-1.55c.09.18 1.77-1.82 5.05-5.97Z" transform="translate(-289.44 -36.27)" id="O_2_Shadows_0_Layer0_0_FILL" data-name="O 2 Shadows 0 Layer0 0 FILL"/><path class="cls-6" d="M810.14 121.22c1.08-.5 2.17-1 3.26-1.42a41.43 41.43 0 0 0-8.17 3.42 56.08 56.08 0 0 0-11.79 8.07 46.05 46.05 0 0 0-8.94 10.33 57.21 57.21 0 0 0-9.85 23.2 47.24 47.24 0 0 0-.83 13.94 40.8 40.8 0 0 0 2 10.15 45 45 0 0 0 8.48 15.67 37.74 37.74 0 0 0 13.53 10.11l3.31 1.33a45.7 45.7 0 0 0 11.74 2.25c1.65-.08 3.34-.13 5-.15.71-.11 1.56-.21 2.56-.29a48.23 48.23 0 0 0 14.66-4.48q2.13-1.15 4.92-3a42.57 42.57 0 0 0 6.64-4.63 45.82 45.82 0 0 1-4.85 2.62 53.57 53.57 0 0 1-15.24 4.66 51 51 0 0 1-7.89.37 42.63 42.63 0 0 1-12.36-2.2l-3.39-1.23a40.63 40.63 0 0 1-14.15-10.06 42.92 42.92 0 0 1-8.71-15.38A44.83 44.83 0 0 1 779 161a56.62 56.62 0 0 1 10.1-22.34 47 47 0 0 1 9.17-9.72 58.54 58.54 0 0 1 11.87-7.72Z" transform="translate(-289.44 -36.27)" id="O_2_Edge_0_Layer0_0_FILL" data-name="O 2 Edge 0 Layer0 0 FILL"/><path class="cls-9" d="M858.27 125a32.61 32.61 0 0 0-8.6-5.17c-.17 0-.27 0-.27-.15a44.44 44.44 0 0 0-19.22-3.42 46.35 46.35 0 0 0-11.32 1.74 49.44 49.44 0 0 0-8.72 3.19 58.54 58.54 0 0 0-11.91 7.81 47 47 0 0 0-9.17 9.72A56.62 56.62 0 0 0 779 161a44.83 44.83 0 0 0 1.11 23.47 42.92 42.92 0 0 0 8.71 15.38 40.63 40.63 0 0 0 14.15 10.06l3.39 1.23a42.63 42.63 0 0 0 12.36 2.2 51 51 0 0 0 7.89-.37 53.57 53.57 0 0 0 15.27-4.62 38.09 38.09 0 0 0 5.1-2.82 42.14 42.14 0 0 0 10.29-8 57.06 57.06 0 0 0 14.86-25 46.94 46.94 0 0 0-.23-28A39 39 0 0 0 858.27 125m-9 6a28.68 28.68 0 0 1 8.82 8 34.32 34.32 0 0 1 4.34 8.54 36.35 36.35 0 0 1 1.21 17.06 43.84 43.84 0 0 1-6.16 16.4 46.52 46.52 0 0 1-10.07 11.75 41.54 41.54 0 0 1-10.06 6.42 42 42 0 0 1-11.61 3.7 34.27 34.27 0 0 1-9.59.15A30.7 30.7 0 0 1 790 181.54q-4.4-13.6 2.59-28.39a51.55 51.55 0 0 1 8.5-12.52 48.38 48.38 0 0 1 13.91-10.2q2.4-1.08 4.73-1.89a39.69 39.69 0 0 1 13.52-2.08 31.49 31.49 0 0 1 16 4.48m-19.94 4.11 1.05-.17h.18a27.8 27.8 0 0 0-3.66-.15 20.51 20.51 0 0 0-6.57 1.25 18.42 18.42 0 0 0-7.44 4.69 6.12 6.12 0 0 1-.66.68 16.78 16.78 0 0 0-4.68 12.38 17.7 17.7 0 0 0 6.32 13.18 19.57 19.57 0 0 0 9.35 4.57 21.94 21.94 0 0 0 5 .31 19.94 19.94 0 0 0 14-6c.66-.7 1.28-1.41 1.88-2.11a17.92 17.92 0 0 0 3.41-11.56 16.53 16.53 0 0 0-3.53-9.59.24.24 0 0 1-.1-.17c-.05 0-.09 0-.1-.08a.27.27 0 0 0 .1.17 12.68 12.68 0 0 1 .49 2.72 9.76 9.76 0 0 1-3.28 7.73 20.17 20.17 0 0 1-2.26 1.79 13.76 13.76 0 0 1-6.17 1.74 12.55 12.55 0 0 1-8.76-2.75 11.92 11.92 0 0 1-2.35-2.66 10.23 10.23 0 0 1-1.46-4.86 9.48 9.48 0 0 1 .73-4.15 10.58 10.58 0 0 1 .69-1.39 11.56 11.56 0 0 1 1.45-1.89 12.18 12.18 0 0 1 6.37-3.68Z" transform="translate(-289.44 -36.27)" id="O_2_Border_0_Layer0_0_FILL" data-name="O 2 Border 0 Layer0 0 FILL"/><g class="cls-10"><path class="cls-11" d="m755.1 85-4.47 46.78-10.47-39.19L711.1 95l-6.8 79.41v-.09l-2.11 24.44 29.29 2.69 3.3-43.74h.18l20.33 35.87 9.15-30.79L777 216.2l31.12 2.19-32.27-135.1Z" transform="translate(-289.44 -36.27)" id="M_Background_0_Layer0_0_FILL" data-name="M Background 0 Layer0 0 FILL"/></g><g class="cls-10"><g id="M_Edge_0_Layer0_0_FILL" data-name="M Edge 0 Layer0 0 FILL"><path class="cls-8" d="m739.35 212.94 5.12 11.68L753 219l3 14.51 56.53 5.37 10.63-7.08-56.35-5.3-4.88-24.5-6.55 15.65-14.72-22.55-1.31 17.8m-60.48 3 49.75 3.88 10.73-6.92-49.65-3.7Z" transform="translate(-289.44 -36.27)"/><path d="m699.79 84.84-10.64 7L678.87 216l10.83-6.74Z" transform="translate(-289.44 -36.27)" style="fill:url(#linear-gradient-2)"/><path d="m742.8 81.35.77-6.91L731 82.31Z" transform="translate(-289.44 -36.27)" style="fill:#0075b6"/></g></g><g class="cls-10"><path class="cls-4" d="m753.11 189.78 2.17 3.73 9.15-30.79-5 5.92-6.29 21.14m-23.29-26.3-2.91 37.58 4.56.34 3.29-43.83-4.94 5.91M711.1 95l-.54 5.46 24.65-2 10.47 39.16 5-5.82-10.52-39.21L711.1 95m64.75-11.66L755.1 85l-.53 5.56 16.34-1.33 30.29 128.83 6.87.33Z" transform="translate(-289.44 -36.27)" id="M_Shadows_0_Layer0_0_FILL" data-name="M Shadows 0 Layer0 0 FILL"/></g><g class="cls-10"><path class="cls-4" d="M784.12 144.59A56.76 56.76 0 0 0 774 166.83a45.2 45.2 0 0 0 1.11 23.56 42.3 42.3 0 0 0 8.71 15.3A39.41 39.41 0 0 0 798 215.74a24.5 24.5 0 0 0 3.4 1.33l6.69 1.32-19-79.72q-2.14 2.4-4.97 5.92Z" transform="translate(-289.44 -36.27)" id="M_Shadow_0_Layer0_0_FILL" data-name="M Shadow 0 Layer0 0 FILL"/></g><g class="cls-10"><path class="cls-9" d="m766.77 226.54 56.35 5.3-38.91-160.61-40.81 3.31-.6 6.81-43 3.49-10.1 124.4 49.65 3.7 1.31-17.8 14.72 22.55 6.55-15.69 4.84 24.5m-16.14-94.79L755.1 85l20.75-1.68 32.22 135.1L777 216.2l-12.52-53.48-9.15 30.79L735 157.64h-.18l-3.3 43.74-29.29-2.69 2.11-24.44v.09L711.1 95l29.06-2.36Z" transform="translate(-289.44 -36.27)" id="M_Border_0_Layer0_0_FILL" data-name="M Border 0 Layer0 0 FILL"/></g><path class="cls-3" d="M636.59 109.17a51.1 51.1 0 0 0-19.43 11.36 19.94 19.94 0 0 0-2.07 2l-.16.19a36.67 36.67 0 0 0-4.44 5.51 18.46 18.46 0 0 0-1.35 2.07 38.2 38.2 0 0 0-5.28 15.9 43.81 43.81 0 0 0 2 18.24 39.19 39.19 0 0 0 2.4 5.49v.07A35.9 35.9 0 0 0 626 186.22l.74.3a45.86 45.86 0 0 0 10.47 3.06 50.86 50.86 0 0 0 6.18.56 52.16 52.16 0 0 0 11.31-.91 57.68 57.68 0 0 0 8.27-2.1c.58-.16 1.16-.36 1.74-.58q17.38-6 28.58-16.9a65.11 65.11 0 0 0 5.72-6.25l-20.94-16a45.84 45.84 0 0 1-6.93 7.76 31 31 0 0 1-10.42 5.84q-6.15 2-9.56 1.67l34.29-43.06a42.48 42.48 0 0 0-21.52-12.12 51.05 51.05 0 0 0-27.34 1.68M635 137.4a1 1 0 0 0 .16-.28 13.57 13.57 0 0 1 6.82-4.73 13.41 13.41 0 0 1 7.81-.1.76.76 0 0 1 .36.06l-15.55 20.91a13.68 13.68 0 0 1-2.34-8.08 13.92 13.92 0 0 1 2.74-7.78m35.65-66.91L655.71 53.3l-24.94 35.54 3 3.85Z" transform="translate(-289.44 -36.27)" id="E_Background_0_Layer0_0_FILL" data-name="E Background 0 Layer0 0 FILL"/><g id="E_Edges_0_Layer0_0_FILL" data-name="E Edges 0 Layer0 0 FILL"><path class="cls-6" d="m623.3 102-8.64-9-11.1 6.86 8.51 8.38c-.34.2-.65.41-.93.61q-19.14 12.92-23.43 33.36a56.5 56.5 0 0 0 2.63 32.42 53 53 0 0 0 14.85 19.69q18.25 15.68 44 13.76a64.3 64.3 0 0 0 38.46-18c.93-1 1.82-2 2.69-3l-1 .62-4.75 2.78a111.73 111.73 0 0 1-22.59 9.18 48.78 48.78 0 0 1-6.3 1.31 60.37 60.37 0 0 1-11.39.93 56.5 56.5 0 0 1-25.21-6.05 48.62 48.62 0 0 1-19.1-17.21 44.21 44.21 0 0 1-5.75-12.86 55.76 55.76 0 0 1-2.11-16.1q1.05-19.92 13.49-34.26a52.59 52.59 0 0 1 7-6.53A67.32 67.32 0 0 1 623.3 102Z" transform="translate(-289.44 -36.27)"/><path d="M656.28 36.27 645.54 43l-42 56.84L614.66 93Z" transform="translate(-289.44 -36.27)" style="fill:url(#linear-gradient-3)"/></g><path class="cls-15" d="M650.12 132.35a.76.76 0 0 0-.36-.06 13.41 13.41 0 0 0-7.81.1 13.57 13.57 0 0 0-6.82 4.73.24.24 0 0 0-.08.18 21.52 21.52 0 0 1 3.65-1.09 19.94 19.94 0 0 1 8.54 0Z" transform="translate(-289.44 -36.27)" id="E_Edge_0_Layer0_0_FILL" data-name="E Edge 0 Layer0 0 FILL"/><path class="cls-4" d="M624.75 148.36a20.27 20.27 0 0 1 3.36-14.36 34.6 34.6 0 0 1 1.55-3.94q-8.74 8.27-8.4 19.17a22.06 22.06 0 0 0 8.13 16.77 5.88 5.88 0 0 0 .94.63l3.83-3.16a10.55 10.55 0 0 1-1.23-.87 20.92 20.92 0 0 1-8.18-14.28m53.36-1c-3.25 3.88-4.89 5.85-5 5.91l20.67 15.84q2.88-2.9 5.22-5.76l-20.94-16m-5.52 6.49-1.41 1.27a31 31 0 0 1-10.41 5.93q-6.15 2-9.56 1.67l-4.84 6.08q3.3.09 9.36-1.92a30.79 30.79 0 0 0 10.22-5.54 40.52 40.52 0 0 0 6.69-7.39M659 113.4a41.87 41.87 0 0 1 21.63 12.38l4.83-6.17a42.48 42.48 0 0 0-21.52-12.12 53.85 53.85 0 0 0-46.77 13 19.94 19.94 0 0 0-2.07 2l-.16.19a38 38 0 0 0-3.49 4.1l-.39.66a49.53 49.53 0 0 1 20.6-12.34q14.29-4.73 27.34-1.69m11.63-42.91-14.92-17.2-4.55 6.41L664 74.5Z" transform="translate(-289.44 -36.27)" id="E_Shadows_0_Layer0_0_FILL" data-name="E Shadows 0 Layer0 0 FILL"/><path class="cls-9" d="m684.8 72.19-28.52-35.92L614.66 93l8.64 9a62.1 62.1 0 0 0-17.67 13.44q-12.43 14.34-13.49 34.26a55.76 55.76 0 0 0 2.11 16.1 44.21 44.21 0 0 0 5.75 12.84 48.62 48.62 0 0 0 19.09 17.21 56.5 56.5 0 0 0 25.21 6.05 60.37 60.37 0 0 0 11.39-.93 65.59 65.59 0 0 0 11-2.67 90.14 90.14 0 0 0 25.39-12.46 55.44 55.44 0 0 0 12.6-11.25l11.51-13.73-9.67-7.4v-.09l-11.1-8.52v.09l-8.63-6.59L697 125.61v.18l3.94-5a20.79 20.79 0 0 0-3.16-5.07l-3.9-4.13a53.62 53.62 0 0 0-19.92-13.23 57.16 57.16 0 0 0-24-3.56l34.84-22.61M655.71 53.3l14.91 17.19-36.87 22.2-3-3.85 24.96-35.54m-38.55 67.23a53.85 53.85 0 0 1 46.77-13 42.48 42.48 0 0 1 21.52 12.12l-34.29 43.06q3.4.35 9.56-1.67a31 31 0 0 0 10.46-5.83 45.84 45.84 0 0 0 6.93-7.76l20.94 16a65.11 65.11 0 0 1-5.72 6.25q-11.37 11-28.58 16.9l-1.74.58a57.68 57.68 0 0 1-8.27 2.1 60.41 60.41 0 0 1-11.31.91 44.33 44.33 0 0 1-6.18-.56 46.09 46.09 0 0 1-10.47-3.06l-.74-.3A35.5 35.5 0 0 1 608.28 170v-.09a40.53 40.53 0 0 1-4.41-23.73 38.2 38.2 0 0 1 5.28-15.9 18.86 18.86 0 0 1 1.35-2.07 37.56 37.56 0 0 1 4.44-5.51l.16-.19 2.07-2m12 11.92c-.38.5-.72 1-1 1.5a20.27 20.27 0 0 0-3.36 14.41 20.92 20.92 0 0 0 8.18 14.28 10.55 10.55 0 0 0 1.23.87 11.5 11.5 0 0 0 1.21.71L661 130l-1.62-1.38a21.43 21.43 0 0 0-30.19 3.79m20.61-.16a.76.76 0 0 1 .36.06l-15.55 20.91a13.68 13.68 0 0 1-2.34-8.08 13.92 13.92 0 0 1 2.73-7.74 1 1 0 0 0 .16-.28 13.57 13.57 0 0 1 6.82-4.73 13.41 13.41 0 0 1 7.78-.1Z" transform="translate(-289.44 -36.27)" id="E_Border_0_Layer0_0_FILL" data-name="E Border 0 Layer0 0 FILL"/><g class="cls-16"><path class="cls-3" d="m597.56 124.43-29.11-23.51-24.41 41-5.44-38.5-36.54 14.26 1.25 10 10.3-3.51 19.48 117.38 23.06-5.07-3.92-47.25L646.07 227l-2.91-35.86-80.09-23.9Z" transform="translate(-289.44 -36.27)" id="K_Background_0_Layer0_0_FILL" data-name="K Background 0 Layer0 0 FILL"/></g><g class="cls-16"><g id="K_Edge_0_Layer0_0_FILL" data-name="K Edge 0 Layer0 0 FILL"><path class="cls-8" d="m564.4 206.61.94 11.57 82.78 33 10.81-7h-.09Z" transform="translate(-289.44 -36.27)"/><path class="cls-6" d="m550.39 94.3 1 16.54L563 83.32l-10.82 7-1.81 4M483.17 150l10.47-3.52 20.09 116.08 42.75-10 11.09-7-42.94 9.89-20.35-116-10.3 3.5Z" transform="translate(-289.44 -36.27)"/><path d="m489.79 110.06-10.89 7.11 4.27 32.83 10.83-6.94Z" transform="translate(-289.44 -36.27)" style="fill:url(#linear-gradient-4)"/></g></g><g class="cls-16"><path class="cls-4" d="m550.83 237.67 5.32-1.23-3.92-47.25-5 6.1 3.62 42.38M544 141.85l-5.43-38.42-36.54 14.26.39 3.7 31.21-12 5.59 40.44 4.78-7.94m50.56 42.39a48.76 48.76 0 0 0 19.08 17.12 56.09 56.09 0 0 0 25.3 6l1.4 17.31 5.7 2.29-2.91-35.86-80.09-23.9-4.6 5.8 36.12 11.2m-1.72-54 4.69-5.81-29.11-23.51-3.91 6.63Z" transform="translate(-289.44 -36.27)" id="K_Shadows_0_Layer0_0_FILL" data-name="K Shadows 0 Layer0 0 FILL"/></g><g class="cls-16"><path class="cls-9" d="m580.93 161.61 33.81-39.11L563 83.32l-11.64 27.52-1.53-25.48-60.06 24.7 4.19 33 10.3-3.5 20.35 116 42.94-9.89-3.17-39 94.44 37.58-5-61-73-21.55m-12.48-60.69 29.11 23.51-34.49 42.81 80.09 23.9 3.02 35.77-93.84-37.81 3.92 47.25-23.06 5.07-19.48-117.38-10.3 3.51-1.25-10 36.54-14.26 5.44 38.5Z" transform="translate(-289.44 -36.27)" id="K_Border_0_Layer0_0_FILL" data-name="K Border 0 Layer0 0 FILL"/></g><path d="m528.28 197.62-.12-1.59a49.17 49.17 0 0 1-7.5 25.95 52.83 52.83 0 0 1-21.13 20q-16.89 8.84-32.87 3.65t-21.94-21.61q-5.79-15.62 1.94-33.14a52.68 52.68 0 0 1 24.1-26.14 45.9 45.9 0 0 1 21.08-5.44 35.41 35.41 0 0 1 16.09 3.32 40.66 40.66 0 0 0-22-6.31 12.2 12.2 0 0 0-3.2 0h-.7a48.67 48.67 0 0 0-22 6.41q-20.37 10.72-29.08 32.68-6.15 14.19-4.6 27.67a44.58 44.58 0 0 0 3.36 13q7.69 19.2 26.67 25.22a46.39 46.39 0 0 0 17.49 1.87 59.21 59.21 0 0 0 45.13-29.4 62.94 62.94 0 0 0 9.49-33.13 7.6 7.6 0 0 1-.14-1.77Z" transform="translate(-289.44 -36.27)" style="fill:url(#linear-gradient-5)" id="O_1_Edge_0_Layer0_0_FILL" data-name="O 1 Edge 0 Layer0 0 FILL"/><path class="cls-3" d="M523.07 183.73a30.43 30.43 0 0 0-14-16.56 32.77 32.77 0 0 0-17.07-4.29 42.09 42.09 0 0 0-19.33 5 48.31 48.31 0 0 0-22.23 24q-7.14 16.14-1.79 30.55 5.58 15 20.19 19.88t30.27-3.31a48.78 48.78 0 0 0 19.39-18.46 45 45 0 0 0 6.89-25.72 34.6 34.6 0 0 0-1.5-8.68Z" transform="translate(-289.44 -36.27)" id="O_1_Background_0_Layer0_0_FILL" data-name="O 1 Background 0 Layer0 0 FILL"/><path class="cls-4" d="M483.79 176.25a9.15 9.15 0 0 0-1.89 3.09l-.14.37a11.35 11.35 0 0 1 4.49-1.61q-.09 0 4.94-5.92a12.41 12.41 0 0 0-7.4 4.07m11.85 35.4a27 27 0 0 0 10-10.85l-1.46 1.72a20.07 20.07 0 0 1-13.51 6.61h-.26a19.64 19.64 0 0 1-14.49-4.34A17.64 17.64 0 0 1 469 192v-.09a16.65 16.65 0 0 1 4.8-13.19 5.2 5.2 0 0 1 .57-.58 28.83 28.83 0 0 0-8 9.63 18.57 18.57 0 0 0-2.37 10.09 17.61 17.61 0 0 0 7.08 12.85 20.1 20.1 0 0 0 14.68 4.41 21.85 21.85 0 0 0 9.85-3.47m23-22.22.82 2.42a46.83 46.83 0 0 1 1.42 8.77q.72 13.29-6.86 26.08a6.82 6.82 0 0 0-.63 1 54.45 54.45 0 0 0 5.11-7.17 45 45 0 0 0 6.89-25.72 34.6 34.6 0 0 0-1.5-8.68l-.82-2.43a30.43 30.43 0 0 0-14-16.56 32.77 32.77 0 0 0-17.04-4.26 42.09 42.09 0 0 0-19.33 5 47.72 47.72 0 0 0-15.82 13.2 53.46 53.46 0 0 1 10.83-7.81 42.44 42.44 0 0 1 19.42-5.05 34.8 34.8 0 0 1 17.51 4.36 30.91 30.91 0 0 1 14.08 16.82M501 191.13a16.87 16.87 0 0 0 1.49-1.37 9.91 9.91 0 0 0 2.91-7.88 8.78 8.78 0 0 0-.67-2.79 66.42 66.42 0 0 1-5 5.82 9.9 9.9 0 0 1 .67 2.79 8.93 8.93 0 0 1-.64 4.14c.45-.21.84-.45 1.24-.71Z" transform="translate(-289.44 -36.27)" id="O_1_Shadows_0_Layer0_0_FILL" data-name="O 1 Shadows 0 Layer0 0 FILL"/><path class="cls-9" d="M507.23 156.21a45.64 45.64 0 0 0-19.66-2.4 53.16 53.16 0 0 0-20.06 6 61.46 61.46 0 0 0-10.51 7.24q-19.31 17.38-20.87 41.88a43.15 43.15 0 0 0 2.79 17.91 43.89 43.89 0 0 0 9.7 15.57 42 42 0 0 0 15.13 10 44.06 44.06 0 0 0 20 2.83 51.9 51.9 0 0 0 20.4-6.1 55.69 55.69 0 0 0 17-13.57 50.64 50.64 0 0 0 8.78-13.33 55.48 55.48 0 0 0 5.55-20.37 47.94 47.94 0 0 0-2.72-20.4 43.23 43.23 0 0 0-12.57-17.92 38.39 38.39 0 0 0-12.95-7.31M492 162.88a32.77 32.77 0 0 1 17.15 4.29 30.43 30.43 0 0 1 14 16.56l.82 2.43a34.6 34.6 0 0 1 1.5 8.68 45 45 0 0 1-6.89 25.72A48.78 48.78 0 0 1 499.11 239q-15.62 8.11-30.32 3.35t-20.19-19.86q-5.36-14.4 1.79-30.55a48.31 48.31 0 0 1 22.23-24 42.09 42.09 0 0 1 19.33-5m-.76 9.3a25.82 25.82 0 0 0-3.65-.06 20.26 20.26 0 0 0-13.78 6.55A16.73 16.73 0 0 0 469 192a17.64 17.64 0 0 0 6.91 12.86 19.64 19.64 0 0 0 14.49 4.34 20.11 20.11 0 0 0 13.77-6.63 17.8 17.8 0 0 0 4.66-13.81 16 16 0 0 0-4.07-9.62 8.78 8.78 0 0 1 .67 2.79 9.91 9.91 0 0 1-2.91 7.88 13.2 13.2 0 0 1-17.14 1.39 10 10 0 0 1-1.56-14.9 12.41 12.41 0 0 1 7.37-4.12Z" transform="translate(-289.44 -36.27)" id="O_1_Border_0_Layer0_0_FILL" data-name="O 1 Border 0 Layer0 0 FILL"/><g id="P_Edge_0_Layer0_0_FILL" data-name="P Edge 0 Layer0 0 FILL"><path d="m323.6 206.06 10.91-5.78 57.31 105.86 44.72-18.57 10.79-8.43-44.83 18.4-59.45-108.17-10.86 6.48Z" transform="translate(-289.44 -36.27)" style="fill:url(#linear-gradient-6)"/><path d="m332.19 195.85-34.25-48.43-8.5 10.29 34.16 48.35Z" transform="translate(-289.44 -36.27)" style="fill:url(#linear-gradient-7)"/></g><path class="cls-11" d="M441.75 143.57q-6.3-11.94-19.8-18.22a43.16 43.16 0 0 0-20-5 94.58 94.58 0 0 0-30.48 2.48 139.62 139.62 0 0 0-34 12.89 166.17 166.17 0 0 0-22.92 14.4l21 29.68 12-7.21 60.29 109.71 24.17-10L412 214.62q20.81-15.28 29.37-35.81 8.4-20.33.43-35.24M416 168.51a20.62 20.62 0 0 1 .65 8q-1.34 4.47-6.75 10l-7.9-19.09q-1.75-4-2-4.73a17.08 17.08 0 0 1 10.33.14q4.6 1.95 5.62 5.68m-14.11-1.79c.29.57.38.68.3.33a2.09 2.09 0 0 1-.33-.68Z" transform="translate(-289.44 -36.27)" id="P_Background_0_Layer0_0_FILL" data-name="P Background 0 Layer0 0 FILL"/><path class="cls-15" d="M416 168.51q-1-3.73-5.62-5.68a17.08 17.08 0 0 0-10.33-.14l1.36 3.63a19.54 19.54 0 0 1 4.78.77 7.44 7.44 0 0 1 5.62 5.67c1.4 4.93 1.33 9.08-.24 12.47a23.07 23.07 0 0 0 5.08-8.68 20.62 20.62 0 0 0-.65-8.04Z" transform="translate(-289.44 -36.27)" id="P_Shadow_0_Layer0_0_FILL" data-name="P Shadow 0 Layer0 0 FILL"/><path class="cls-4" d="m406.37 219.25 19.8 55.47 5.93-2.43-20.1-57.58-5.59 4.54m-17-60.05-3.71 3.68 16.79 42.46a97.66 97.66 0 0 0 8.13-7.15q-2.08 1.68-4.43 3.48l-16.78-42.47m27.51-27.93a41.29 41.29 0 0 1 19.89 18.21q5.76 10.74 2.92 25.1a64.28 64.28 0 0 1-11.22 24.92 79 79 0 0 0 12.81-20.69q8.4-20.33.43-35.24-6.3-11.94-19.8-18.22a43.16 43.16 0 0 0-20-5 94.58 94.58 0 0 0-30.48 2.48 139.62 139.62 0 0 0-34 12.89 166.17 166.17 0 0 0-22.92 14.4l1.1 1.51a146.88 146.88 0 0 1 16.87-10.09 143.78 143.78 0 0 1 34-12.89 94.59 94.59 0 0 1 30.48-2.52 44.78 44.78 0 0 1 19.92 5.14Z" transform="translate(-289.44 -36.27)" id="P_Shadows_0_Layer0_0_FILL" data-name="P Shadows 0 Layer0 0 FILL"/><path class="cls-9" d="M442 124.26a51.72 51.72 0 0 0-14.2-9.52 54 54 0 0 0-24.62-6.53 106.77 106.77 0 0 0-34.67 2.79 155.84 155.84 0 0 0-36.65 13.91 182.57 182.57 0 0 0-24.61 15.51l-9.31 7 34.25 48.43 10.86-6.48 59.45 108.17 44.83-18.4-21.09-60.43a101.82 101.82 0 0 0 9.88-9.78A101.11 101.11 0 0 0 457 167.05q2.31-16.45-4.59-29.15A52.5 52.5 0 0 0 442 124.26m-20 1.09q13.5 6.28 19.8 18.22 8 14.91-.43 35.24a79 79 0 0 1-12.81 20.69A98.07 98.07 0 0 1 412 214.62v.09l20.14 57.58-24.17 10-60.33-109.75-12 7.21-21-29.68a166.17 166.17 0 0 1 22.92-14.4 139.62 139.62 0 0 1 34-12.89A94.58 94.58 0 0 1 402 120.3a43.16 43.16 0 0 1 20 5m-11 29.56q-10.53-2.7-21.18 4.12a3.92 3.92 0 0 0-.42.22l16.78 42.47q2.34-1.8 4.43-3.48a55.19 55.19 0 0 0 10.3-11.06 24.35 24.35 0 0 0 3-20.42q-2.53-9.3-12.88-11.85m-8.07 14.44c-.24-.75-.51-1.5-.8-2.25-.38-1-.8-2.09-1.24-3.18a14.65 14.65 0 0 1 9.17.14c2.76 1.14 4.43 2.81 5 5a18.39 18.39 0 0 1 .58 7.15 12.09 12.09 0 0 1-.54 2.09 22 22 0 0 1-5.29 8.25Z" transform="translate(-289.44 -36.27)" id="P_Border_0_Layer0_0_FILL" data-name="P Border 0 Layer0 0 FILL"/></svg>